<svg xmlns="http://www.w3.org/2000/svg" viewBox="0 0 91.66 100.84"><defs><style>.cls-1{font-size:72px;font-family:VAGRoundedStd-Bold, VAG Rounded Std;font-weight:700;}.cls-1,.cls-2{fill:#2e3192;}</style></defs><g id="Layer_2" data-name="Layer 2"><g id="Layer_1-2" data-name="Layer 1"><text class="cls-1" transform="translate(24.79 78.52)">K</text><path class="cls-2" d="M60.94,78.65c6.33,4,13.91,4.84,19.87-.3C85.93,73.94,88.5,66.9,90,60.49c4-17.37,1-34.93-12.36-47.7C61.29-2.86,35.65-4.51,18,9.84,0,24.43-4.56,50.4,4.6,71.17,9.12,81.45,17.07,90,27.66,94c11.42,4.38,23.74,2.44,34.61-2.54,6.13-2.81.8-11.86-5.3-9.06C42.53,89,25.86,86.19,17,72.27,7.87,57.86,8,37.41,18.76,23.84a34.57,34.57,0,0,1,45.65-8.13C76.93,23.47,82.5,36.91,81,50.91c-.59,5.58-1.84,11.6-4.71,16.48-2.68,4.56-5.67,5-10.08,2.2-5.72-3.63-11,5.45-5.3,9.06Z"/></g></g></svg>