<svg id="Layer_1" data-name="Layer 1" xmlns="http://www.w3.org/2000/svg" viewBox="0 0 91.66 100.84"><defs><style>.cls-1{font-size:72px;font-family:VAGRoundedStd-Bold, VAG Rounded Std;font-weight:700;}.cls-1,.cls-2{fill:#fff;}</style></defs><text class="cls-1" transform="translate(24.79 78.52)">K</text><path class="cls-2" d="M306.32,268.38c6.32,4,13.91,4.84,19.86-.3,5.12-4.42,7.69-11.46,9.19-17.86,4.06-17.38,1-34.93-12.35-47.71-16.36-15.64-42-17.29-59.67-2.94-18,14.59-22.53,40.55-13.38,61.33,4.53,10.28,12.47,18.79,23.06,22.85,11.43,4.38,23.75,2.44,34.61-2.54,6.14-2.81.81-11.87-5.3-9.07-14.43,6.62-31.11,3.78-39.94-10.15-9.15-14.41-9.06-34.85,1.74-48.42a34.55,34.55,0,0,1,45.64-8.13c12.53,7.76,18.09,21.2,16.62,35.2-.59,5.58-1.83,11.59-4.71,16.48-2.68,4.55-5.66,5-10.07,2.2-5.73-3.64-11,5.45-5.3,9.06Z" transform="translate(-245.37 -189.73)"/></svg>